<?xml version="1.0" encoding="utf-8"?>
<!-- Generator: Adobe Illustrator 20.0.0, SVG Export Plug-In . SVG Version: 6.00 Build 0)  -->
<svg version="1.1" id="Ebene_1" xmlns="http://www.w3.org/2000/svg" xmlns:xlink="http://www.w3.org/1999/xlink" x="0px" y="0px"
	 viewBox="0 0 391.2 170.1" style="enable-background:new 0 0 391.2 170.1;" xml:space="preserve">
<style type="text/css">
	.st0{fill:#DA0A0A;}
	.st1{fill:#FFFFFF;}
</style>
<g>
	<path class="st0" d="M0.3,39.1H292l-65.5,78.1H0.3V39.1z M262,0l65.5,78.1h63.3V0H262z"/>
	<g>
		<path class="st1" d="M43,84.5c0,3.2-1.7,6.3-4.3,7.9c-2.4,1.4-5.3,2.1-9.3,2.1c-2.9,0-7-0.6-9.7-3.3c-1.7-1.7-2.6-4-2.5-6.9v-0.1
			h6.4v0.1c0,0.9,0.1,2.5,1.3,3.7c1.1,1.2,2.9,1.7,5.3,1.7c2.7,0,4.2-0.6,5.3-1.9c0.6-0.8,1-1.8,1-2.8c0-2.9-1.9-3.4-6.7-4.5
			c-6.4-1.5-12-2.7-12-9.4c0-5.7,4.9-9.5,12.2-9.5c4.3,0,9.5,1.3,11.3,4.9c0.8,1.8,0.8,3.2,0.8,4.6v0.1H36v-0.1
			c0.1-1.5-0.3-2.6-1.1-3.4c-1-1-2.5-1.5-4.8-1.5c-1.8,0-6.1,0.4-6.1,4.3c0,2.7,2.5,3.3,4.2,3.8h0.1c8.6,2,10.4,2.5,12.3,4.3
			C42.2,80.1,43,82.2,43,84.5 M64.5,66.9v-4.5h-6.9V54l-6,1.9v6.4h-5.5v4.5h5.5v20.5c0,4.8,2.2,6.7,8,6.7c2.4,0,4-0.2,4.8-0.4h0.1
			v-4.8h-0.2c-0.4,0.1-1.5,0.3-2.7,0.3c-4,0-4-2.4-4-4V66.9H64.5z M94.8,93.7H89l-0.1-4.2c-2.1,3.9-6.7,5.2-9.4,5.2
			c-6.7,0-11-3.6-11-9.3c0-2.2,0.7-6.4,5.5-9.2c2.4-1.3,6.1-2.1,10.8-2.1c1.4,0,2.3,0.1,4,0.2c0-3.7,0-5.3-1.1-6.6
			c-1.1-1.5-3.5-2-5.3-2c-3.9,0-5.9,1.7-6.1,5.1v0.1h-6.1v-0.3c0.2-1.6,0.4-3.7,2.2-5.7c2.8-3,8-3.4,10.1-3.4c4,0,9.3,1.2,11.1,4.6
			c1,1.8,1.1,3.3,1.1,4.8L94.8,93.7z M87.4,86.6c1.3-2.1,1.3-3.8,1.5-7.9c-0.9-0.1-1.8-0.2-3.2-0.2c-7.3,0-11,2.1-11,6.1
			c0,2.4,1.6,5.2,6.3,5.2C83.8,89.8,85.9,88.7,87.4,86.6 M171.7,93.7H166l-0.1-4.2c-2.1,3.9-6.7,5.2-9.4,5.2c-6.7,0-11-3.6-11-9.3
			c0-2.2,0.7-6.4,5.5-9.2c2.4-1.3,6.1-2.1,10.8-2.1c1.4,0,2.3,0.1,4,0.2c0-3.7,0-5.3-1.1-6.6c-1.1-1.5-3.5-2-5.3-2
			c-3.9,0-5.9,1.7-6.1,5.1v0.1h-6.1v-0.3c0.2-1.6,0.4-3.7,2.2-5.7c2.8-3,8-3.4,10.1-3.4c4,0,9.3,1.2,11.1,4.6c1,1.8,1.1,3.3,1.1,4.8
			V93.7z M164.3,86.6c1.3-2.1,1.3-3.8,1.5-7.9c-0.9-0.1-1.8-0.2-3.2-0.2c-7.3,0-11,2.1-11,6.1c0,2.4,1.6,5.2,6.3,5.2
			C160.7,89.8,162.9,88.7,164.3,86.6 M207.9,62.5v5.7l-0.1,19.3c0,7.4-0.2,10.5-1.5,12.9c-2.9,5.6-10.5,5.6-13,5.6
			c-12.5,0-12.9-5.9-13.1-10.1v-0.2h6.4v0.1c0.2,2.9,1.2,5.9,7.1,5.9c7.9,0,8.1-5.6,8.1-13.5c-1.3,2.3-4.1,4.8-10,4.8
			c-2.9,0-7-0.7-9.6-3.9c-2.3-2.8-3.5-6.7-3.5-11.5c0-5,1.4-9,4.1-11.8c2.5-2.6,5.9-3.9,9.8-3.9c5.9,0,8.3,2.8,9.6,4.4l0.1-4h5.6
			V62.5z M199.8,85.5c1.2-1.5,2.1-3.1,2.1-8.8c0-3.6-0.7-5.9-2.4-7.6c-1.5-1.7-4-2.7-6.6-2.7c-7.1,0-8.2,7-8.2,11.2
			c0,4.1,1.1,10.9,8.4,10.9C196.2,88.5,198.2,87.6,199.8,85.5 M120.3,62.2c-0.4,0-0.9-0.1-1.5-0.1c-0.8,0-1.7,0.1-2.5,0.2
			c-2.1,0.3-5.8,1.4-7.2,5.4l-0.1-5.3h-5.9c0.1,2.4,0.1,4.5,0.1,6.4v24.8h6.1V77.1c0-4.3,0.9-9.2,8.3-9.2c0.7,0,1.2,0,1.6,0.1
			s0.8,0.1,1.1,0.2l0.2,0.1v-6L120.3,62.2z M142.8,62.2c-0.4,0-0.9-0.1-1.5-0.1c-0.8,0-1.7,0.1-2.5,0.2c-2.2,0.3-5.8,1.4-7.3,5.4
			l-0.1-5.3h-5.9c0.1,2.4,0.1,4.5,0.1,6.4v24.8h6.1V77.1c0-4.3,0.9-9.2,8.3-9.2c0.7,0,1.2,0,1.6,0.1c0.4,0.1,0.8,0.1,1.1,0.2
			l0.2,0.1v-6L142.8,62.2z"/>
	</g>
</g>
</svg>
